<svg width="106" height="83" viewBox="0 0 106 83" fill="none" xmlns="http://www.w3.org/2000/svg" xmlns:xlink="http://www.w3.org/1999/xlink">
<mask id="mask0_247_1666" style="mask-type:luminance" maskUnits="userSpaceOnUse" x="3" y="2" width="100" height="78">
<path d="M40.8758 7.86374C31.8605 11.846 24.3818 17.5712 18.9342 24.1318C15.5977 25.4174 12.2843 26.7895 11.1122 27.3317C6.28886 29.555 0.259659 37.4241 5.25554 39.9901C6.97715 40.8748 8.27192 40.1473 9.22343 39.4197C9.9046 38.8987 10.4097 38.3778 10.769 38.4502C10.7761 38.4502 10.7779 38.4555 10.7832 38.4572C10.7209 38.6444 10.6587 38.8298 10.6 39.017C9.95973 40.0183 8.12963 42.0404 7.4947 42.5542C5.60057 44.0942 5.42806 46.4888 8.01225 48.1982C8.35373 48.4243 8.97265 49.3426 8.87306 49.7382C8.22212 52.3147 5.95628 60.6129 11.2065 61.7537C11.2065 61.7537 11.395 61.7979 11.925 61.7979C20.6842 79.3851 46.6862 85.0891 70.723 74.4686C95.2257 63.6433 108.408 39.9583 100.165 21.5658C94.6815 9.32949 81.0953 2.51819 65.3999 2.51819C57.5032 2.51819 49.0766 4.24176 40.8758 7.86374Z" fill="white"/>
</mask>
<g mask="url(#mask0_247_1666)">
<mask id="mask1_247_1666" style="mask-type:luminance" maskUnits="userSpaceOnUse" x="0" y="2" width="109" height="84">
<path d="M108.406 2.51819H0.259659V85.0891H108.406V2.51819Z" fill="white"/>
</mask>
<g mask="url(#mask1_247_1666)">
<mask id="mask2_247_1666" style="mask-type:luminance" maskUnits="userSpaceOnUse" x="0" y="2" width="109" height="84">
<path d="M108.406 2.51819H0.259659V85.0891H108.406V2.51819Z" fill="white"/>
</mask>
<g mask="url(#mask2_247_1666)">
<rect x="0.256096" y="2.45813" width="108.163" height="82.6468" fill="#00622e"/>
</g>
</g>
</g>
<path d="M38.4197 49.104C38.2596 48.3659 37.7385 48.1999 37.3401 48.2811C37.0129 48.3482 36.7728 48.5725 36.682 48.8974V48.9045C36.4348 49.821 35.887 50.6704 35.0529 51.428C34.1743 52.2263 33.1197 52.9397 31.9174 53.5525C30.5052 54.2712 29.0131 54.8593 27.4835 55.3026C25.9327 55.7511 24.3462 56.1432 22.7669 56.4681C21.4952 56.7294 20.887 56.6129 20.6006 56.4681C20.2183 56.2756 19.9746 55.9224 19.859 55.3838C19.7541 54.8981 19.7149 54.3172 19.7452 53.6549C19.7807 52.8408 19.8661 51.843 19.9977 50.6916C20.1293 49.542 20.2965 48.3464 20.4957 47.1403C20.6753 46.0631 20.8283 45.1642 20.9635 44.4119L31.5723 42.2309C32.0917 42.1232 32.3976 41.6234 32.5826 41.2579C32.7995 40.827 32.9738 40.4049 33.1037 40.0005C33.2353 39.5838 33.3242 39.2164 33.0663 38.941C32.9205 38.7856 32.707 38.7202 32.4954 38.7644L21.7442 40.9753C22.1319 39.2818 22.5819 37.5935 23.0799 35.9406C23.6561 34.0334 24.3622 32.1155 25.1786 30.2401L25.1839 30.2295C25.3529 29.8145 25.6196 29.5266 25.9967 29.3518C26.4591 29.1364 27.0905 28.9439 27.873 28.7832C28.8832 28.5748 29.776 28.6189 30.5301 28.9121C31.222 29.1823 31.6168 29.6432 31.7733 30.3672C31.832 30.6392 31.8622 30.9783 31.864 31.3791C31.8658 31.8277 31.88 32.2303 31.9067 32.5747C31.9263 32.8272 31.9725 33.4206 32.4581 33.6007L32.4883 33.6113L32.5203 33.6184C32.7337 33.6713 32.9596 33.6731 33.1944 33.6254C33.39 33.5848 33.5821 33.5 33.7635 33.3747C34.0178 33.1998 34.1654 32.9402 34.1814 32.6383C34.2668 32.1968 34.3913 31.6211 34.5514 30.9288C34.7221 30.1959 34.8662 29.426 34.98 28.6419C35.1009 27.8119 35.0938 27.0755 34.9587 26.4539C34.9231 26.2914 34.8822 26.1466 34.8359 26.0212C34.7933 25.91 34.7399 25.7916 34.6794 25.6698L34.6563 25.6292C34.281 25.0164 33.4932 24.8292 32.3176 25.0711C31.7395 25.1894 31.0548 25.3678 30.2242 25.6133C29.447 25.8446 28.5346 26.0689 27.5173 26.2773L18.7136 28.0874C17.8439 28.2657 16.8017 28.5253 15.6119 28.8591C14.4043 29.1964 13.2393 29.6344 12.1455 30.1606C10.9931 30.7151 10.1216 31.4321 9.55601 32.2904C9.20564 32.8007 8.8695 33.463 8.55826 34.2612C8.24879 35.0541 8.01758 35.8753 7.87352 36.6982L7.86463 36.7459V36.7953C7.86641 37.0496 7.93222 37.2739 8.06027 37.4629C8.34305 37.8884 8.70232 37.8673 8.84282 37.8372C9.14339 37.7754 9.35859 37.5653 9.4244 37.281C9.74453 36.4474 10.4453 35.6174 11.507 34.8139C12.64 33.9574 13.9988 33.1592 15.5443 32.4405C16.6879 31.9107 17.835 31.4303 18.9697 31.0083C18.8435 31.3827 18.7101 31.7818 18.5571 32.2233C17.9257 34.0687 17.4331 35.8099 17.0934 37.3993C16.7608 38.948 16.4229 40.5391 16.085 42.132L14.9343 42.3687C14.5857 42.4411 14.2264 42.6583 13.8351 43.038C13.4919 43.37 13.2038 43.7373 12.9779 44.1276C12.6987 44.6079 12.6008 44.977 12.6666 45.2878C12.7218 45.5456 12.8818 45.7434 13.1166 45.8459C13.2962 45.9253 13.5079 45.9394 13.7444 45.89L15.3629 45.558C15.2437 46.1902 15.1103 46.9143 14.9592 47.7531C14.7457 48.9398 14.5501 50.1795 14.3776 51.4351C14.2015 52.7137 14.0895 53.9534 14.045 55.1171C13.9988 56.3074 14.0681 57.3458 14.2549 58.2023C14.4025 58.8875 14.6657 59.4331 15.0356 59.8234C15.3807 60.1907 15.82 60.3744 16.3197 60.3673C16.4531 60.3656 16.5901 60.3497 16.7306 60.3214L30.2029 57.5506C31.5297 57.2769 32.8529 56.8919 34.1352 56.4045C35.5136 55.88 36.5611 54.9882 37.2476 53.752C37.534 53.2576 37.7883 52.6713 38.0035 52.0108C38.2187 51.3503 38.3699 50.6016 38.4517 49.7875V49.7557C38.4588 49.625 38.4606 49.5084 38.457 49.4025C38.4517 49.2824 38.441 49.1817 38.4214 49.097L38.4197 49.104Z" fill="white"/>
<path d="M57.5175 30.7946L57.9994 30.8494L58.1275 30.3937C58.204 30.1236 58.3498 29.7863 58.5614 29.3942C58.766 29.0181 59.0274 28.6772 59.3422 28.3823C59.6072 28.1333 59.8953 28.0009 60.2208 27.9744L60.42 27.9585L60.5641 27.8243C61.3608 27.0879 61.4035 26.3585 61.2986 25.8747C61.1865 25.359 60.8504 24.9334 60.3257 24.642C59.8171 24.3612 59.2337 24.2853 58.5952 24.4177L58.2609 24.4866C58.0919 24.5219 57.9176 24.5961 57.7255 24.7162C57.023 25.1029 56.4414 25.751 55.9968 26.6446C55.5433 27.5541 55.3975 28.4017 55.5629 29.1682C55.7051 29.8251 56.1587 30.6392 57.5157 30.7946H57.5175Z" fill="#DAED35"/>
<path d="M42.6686 58.1687L45.8237 64.708L45.9553 64.6798L48.495 56.9537L51.8511 56.2544L52.3437 67.7755L49.7044 68.3265L49.402 61.2485L49.3096 61.2679L46.9192 68.8333L45.2385 69.183L42.2435 62.7019L42.151 62.7213L42.4445 69.8399L39.8051 70.3909L39.3125 58.8698L42.6686 58.1705V58.1687Z" fill="white"/>
<path d="M53.5513 65.1072C53.4731 63.1929 54.8621 62.2516 56.557 61.7501C57.9816 61.3227 58.5383 61.0879 58.5241 60.5634L58.5188 60.5369C58.4885 59.9594 58.0706 59.7157 57.4143 59.8535C56.7136 60 56.2618 60.4292 56.1782 61.0084L53.7079 61.4322C53.8466 59.8146 55.0844 58.3754 57.352 57.9021C59.4756 57.4588 61.1207 58.1776 61.199 60.0053L61.4409 65.8807L58.9225 66.4052L58.8727 65.2008L58.8069 65.2149C58.396 66.1915 57.5939 66.8308 56.4219 67.0745C54.823 67.4082 53.6225 66.8131 53.5531 65.1072H53.5513ZM58.6593 63.3607L58.6166 62.5413C58.332 62.7655 57.7077 62.9969 57.2311 63.1823C56.4663 63.4613 56.0466 63.8834 56.0804 64.4432C56.1071 65.0048 56.5499 65.2308 57.1795 65.1001C58.0279 64.9235 58.6877 64.2066 58.6575 63.3624L58.6593 63.3607Z" fill="white"/>
<path d="M62.7072 56.8972L65.3074 56.3551L65.3714 57.9303L65.4586 57.9127C65.7182 56.7065 66.4314 56.0019 67.3509 55.8094C67.6035 55.7564 67.8685 55.7405 68.105 55.7494L68.201 58.1475C67.9343 58.1069 67.4701 58.1528 67.1357 58.2217C66.1878 58.4195 65.5084 59.2583 65.5439 60.2896L65.7467 64.98L63.07 65.5381L62.7054 56.8955L62.7072 56.8972Z" fill="white"/>
<path d="M74.4099 56.4999L72.8928 56.816L73.06 60.7153C73.0831 61.2274 73.3374 61.3545 73.7714 61.2645C73.9688 61.2238 74.2356 61.1055 74.3565 61.0578L74.8492 62.958C74.5824 63.0993 74.1217 63.3306 73.4922 63.4913C71.5874 63.9734 70.4455 63.3271 70.4011 61.5753L70.2214 57.3723L69.1045 57.6054L69.0245 55.5781L70.1307 55.3467L70.0418 53.277L72.7185 52.719L72.8074 54.7887L74.3298 54.4708L74.4099 56.4981V56.4999Z" fill="white"/>
</svg>
